<svg width="68" height="74" viewBox="0 0 68 74" fill="none" xmlns="http://www.w3.org/2000/svg">
<rect width="68" height="74" rx="34" fill="#F0EEF9"/>
<g clip-path="url(#clip0_670_219)">
<line x1="34.182" y1="53.2855" x2="34.182" y2="31.5757" stroke="#7E57C2" stroke-width="1.3"/>
</g>
<path d="M28.2002 32.2267H41.2236C42.1964 32.227 42.9854 33.0156 42.9854 33.9885V53.1144H26.4385V33.9885C26.4385 33.0155 27.2272 32.2267 28.2002 32.2267Z" stroke="#7E57C2" stroke-width="1.3"/>
<rect x="20.65" y="20.65" width="27.6409" height="32.4644" rx="1.76174" stroke="#7E57C2" stroke-width="1.3"/>
<path d="M32.3001 28.8028L30.1296 26.6323L27.959 28.8028" stroke="#7E57C2" stroke-width="1.3" stroke-linecap="round" stroke-linejoin="round"/>
<path d="M36.6406 26.6323L38.8112 28.8028L40.9818 26.6323" stroke="#7E57C2" stroke-width="1.3" stroke-linecap="round" stroke-linejoin="round"/>
<defs>
<clipPath id="clip0_670_219">
<path d="M25.7881 33.9881C25.7881 32.6561 26.8679 31.5764 28.1998 31.5764H41.2232C42.5552 31.5764 43.635 32.6561 43.635 33.9881V53.7644H25.7881V33.9881Z" fill="white"/>
</clipPath>
</defs>
</svg>
