<svg width="68" height="74" viewBox="0 0 68 74" fill="none" xmlns="http://www.w3.org/2000/svg">
<rect width="68" height="74" rx="34" fill="#F0EEF9"/>
<path d="M41.031 36.5H46.025C46.2593 36.5001 46.4896 36.5601 46.6942 36.6743C46.8988 36.7884 47.0709 36.953 47.194 37.1523C47.3171 37.3516 47.3873 37.5791 47.3978 37.8131C47.4084 38.0472 47.359 38.28 47.2542 38.4896L44.4575 44.0845C44.3514 44.2965 44.1924 44.4775 43.9957 44.6099C43.7991 44.7423 43.5716 44.8216 43.3353 44.8402C43.099 44.8587 42.8619 44.8158 42.647 44.7157C42.4321 44.6156 42.2468 44.4616 42.109 44.2687L39.1885 40.185" stroke="#7E57C2" stroke-width="2" stroke-linecap="round" stroke-linejoin="round"/>
<path d="M41.5207 32.4479C41.8466 32.611 42.0944 32.8969 42.2096 33.2426C42.3249 33.5884 42.2982 33.9657 42.1353 34.2918L37.8646 42.8319C37.7838 42.9934 37.672 43.1375 37.5355 43.2558C37.3991 43.3741 37.2406 43.4644 37.0693 43.5215C36.8979 43.5785 36.717 43.6013 36.5369 43.5884C36.3567 43.5756 36.1808 43.5273 36.0193 43.4465L22.9637 36.9125C22.0154 36.4348 21.2949 35.601 20.9599 34.5934C20.625 33.5859 20.7027 32.4866 21.1762 31.5363L23.0737 27.7C23.3102 27.2287 23.6372 26.8086 24.0361 26.4637C24.435 26.1187 24.8979 25.8558 25.3985 25.6898C25.899 25.5238 26.4273 25.458 26.9532 25.4962C27.4792 25.5345 27.9924 25.6759 28.4637 25.9125L41.5207 32.4479Z" stroke="#7E57C2" stroke-width="2" stroke-linecap="round" stroke-linejoin="round"/>
<path d="M20.75 46.125H25.92C26.4325 46.1286 26.9358 45.9888 27.3731 45.7216C27.8104 45.4543 28.1644 45.0702 28.395 44.6125L30.375 40.625" stroke="#7E57C2" stroke-width="2" stroke-linecap="round" stroke-linejoin="round"/>
<path d="M20.75 48.875V43.375" stroke="#7E57C2" stroke-width="2" stroke-linecap="round" stroke-linejoin="round"/>
<path d="M27.625 32.375H27.6388" stroke="#7E57C2" stroke-width="2" stroke-linecap="round" stroke-linejoin="round"/>
</svg>
