<svg width="28" height="28" viewBox="0 0 28 28" fill="none" xmlns="http://www.w3.org/2000/svg">
<path d="M4.23244 9.93894C4.05734 9.14991 4.08423 8.32942 4.3106 7.55355C4.53698 6.77767 4.95551 6.07154 5.5274 5.50063C6.09929 4.92971 6.80602 4.51249 7.58205 4.28765C8.35809 4.06281 9.17832 4.03763 9.96667 4.21445C10.4006 3.53555 10.9984 2.97685 11.7049 2.58985C12.4114 2.20285 13.2039 2 14.0094 2C14.8149 2 15.6075 2.20285 16.314 2.58985C17.0205 2.97685 17.6183 3.53555 18.0522 4.21445C18.8417 4.03686 19.6634 4.06193 20.4407 4.28731C21.2179 4.5127 21.9256 4.93108 22.4978 5.50354C23.0701 6.07601 23.4883 6.78396 23.7136 7.56154C23.9389 8.33912 23.9639 9.16108 23.7864 9.95095C24.4651 10.385 25.0235 10.983 25.4104 11.6898C25.7972 12.3966 26 13.1895 26 13.9953C26 14.8011 25.7972 15.594 25.4104 16.3008C25.0235 17.0076 24.4651 17.6056 23.7864 18.0396C23.9632 18.8283 23.938 19.6489 23.7133 20.4252C23.4885 21.2015 23.0714 21.9086 22.5008 22.4807C21.9301 23.0528 21.2242 23.4715 20.4486 23.6979C19.6731 23.9244 18.8529 23.9513 18.0642 23.7761C17.6308 24.4576 17.0326 25.0187 16.3249 25.4075C15.6171 25.7962 14.8228 26 14.0154 26C13.208 26 12.4137 25.7962 11.706 25.4075C10.9983 25.0187 10.4 24.4576 9.96667 23.7761C9.17832 23.953 8.35809 23.9278 7.58205 23.7029C6.80602 23.4781 6.09929 23.0609 5.5274 22.49C4.95551 21.919 4.53698 21.2129 4.3106 20.437C4.08423 19.6612 4.05734 18.8407 4.23244 18.0516C3.54859 17.6187 2.98532 17.0198 2.595 16.3106C2.20468 15.6013 2 14.8049 2 13.9953C2 13.1857 2.20468 12.3892 2.595 11.68C2.98532 10.9708 3.54859 10.3719 4.23244 9.93894Z" stroke="#4CAF50" stroke-width="3" stroke-linecap="round" stroke-linejoin="round"/>
<path d="M10.4102 13.9954L12.8094 16.3956L17.6079 11.5952" stroke="#4CAF50" stroke-width="3" stroke-linecap="round" stroke-linejoin="round"/>
</svg>
