<svg width="26" height="26" viewBox="0 0 26 26" fill="none" xmlns="http://www.w3.org/2000/svg">
<path d="M14.083 22.75V16.0093C14.083 15.7858 14.0259 15.5715 13.9244 15.4135C13.8228 15.2554 13.685 15.1667 13.5413 15.1667H11.3747C11.231 15.1667 11.0932 15.2554 10.9917 15.4135C10.8901 15.5715 10.833 15.7858 10.833 16.0093V22.75" stroke="#7E57C2" stroke-width="2" stroke-linecap="round" stroke-linejoin="round"/>
<path d="M3.25 10.8333C3.24992 10.5182 3.31861 10.2068 3.45127 9.92087C3.58393 9.63497 3.77736 9.38145 4.01808 9.17801L11.6014 2.67909C11.9925 2.34857 12.488 2.16724 13 2.16724C13.512 2.16724 14.0075 2.34857 14.3986 2.67909L21.9819 9.17801C22.2226 9.38145 22.4161 9.63497 22.5487 9.92087C22.6814 10.2068 22.7501 10.5182 22.75 10.8333V20.5833C22.75 21.158 22.5217 21.7091 22.1154 22.1154C21.7091 22.5217 21.158 22.75 20.5833 22.75H5.41667C4.84203 22.75 4.29093 22.5217 3.8846 22.1154C3.47827 21.7091 3.25 21.158 3.25 20.5833V10.8333Z" stroke="#7E57C2" stroke-width="2" stroke-linecap="round" stroke-linejoin="round"/>
</svg>
