<svg width="20" height="20" viewBox="0 0 20 20" fill="none" xmlns="http://www.w3.org/2000/svg">
<path d="M2.0383 10.109C1.97006 9.92515 1.97006 9.72297 2.0383 9.53916C2.70288 7.9279 3.83096 6.55023 5.27954 5.5808C6.72812 4.61138 8.43195 4.09386 10.175 4.09386C11.9181 4.09386 13.622 4.61138 15.0705 5.5808C16.5191 6.55023 17.6472 7.9279 18.3118 9.53916C18.38 9.72297 18.38 9.92515 18.3118 10.109C17.6472 11.7202 16.5191 13.0979 15.0705 14.0673C13.622 15.0367 11.9181 15.5543 10.175 15.5543C8.43195 15.5543 6.72812 15.0367 5.27954 14.0673C3.83096 13.0979 2.70288 11.7202 2.0383 10.109Z" stroke="#7E57C2" stroke-width="1.84201" stroke-linecap="round" stroke-linejoin="round"/>
<path d="M10.175 12.2801C11.5315 12.2801 12.6312 11.1805 12.6312 9.82405C12.6312 8.46763 11.5315 7.36804 10.175 7.36804C8.81845 7.36804 7.71875 8.46763 7.71875 9.82405C7.71875 11.1805 8.81845 12.2801 10.175 12.2801Z" stroke="#7E57C2" stroke-width="1.84201" stroke-linecap="round" stroke-linejoin="round"/>
</svg>
